PathFileType	4	(X/Y/Z)	 s06c0201.trc
DataRate	CameraRate	NumFrames	NumMarkers	Units	OrigDataRate	OrigDataStartFrame	OrigNumFrames
200	200	4	49	mm	200	251	2000
Frame#	Time	racr			lacr			c7			jug			rlel			rdr			llel			ldr			s2			lic			ric			lasi			rasi			rpsi			lpsi			rgt			lgt			rth1			rth2			rth3			rth4			rlfc			rmfc			rsh1			rsh2			rsh3			rsh4			rlmal			rmmal			rcal			rtoe			rmt5			lth1			lth2			lth4			lth3			llfc			lmfc			llmal			lcal			lmt5			lsh1			lsh2			lsh3			lsh4			ltoe			SBIKE			LBIKE			RBIKE			
		X1	Y1	Z1	X2	Y2	Z2	X3	Y3	Z3	X4	Y4	Z4	X5	Y5	Z5	X6	Y6	Z6	X7	Y7	Z7	X8	Y8	Z8	X9	Y9	Z9	X10	Y10	Z10	X11	Y11	Z11	X12	Y12	Z12	X13	Y13	Z13	X14	Y14	Z14	X15	Y15	Z15	X16	Y16	Z16	X17	Y17	Z17	X18	Y18	Z18	X19	Y19	Z19	X20	Y20	Z20	X21	Y21	Z21	X22	Y22	Z22	X23	Y23	Z23	X24	Y24	Z24	X25	Y25	Z25	X26	Y26	Z26	X27	Y27	Z27	X28	Y28	Z28	X29	Y29	Z29	X30	Y30	Z30	X31	Y31	Z31	X32	Y32	Z32	X33	Y33	Z33	X34	Y34	Z34	X35	Y35	Z35	X36	Y36	Z36	X37	Y37	Z37	X38	Y38	Z38	X39	Y39	Z39	X40	Y40	Z40	X41	Y41	Z41	X42	Y42	Z42	X43	Y43	Z43	X44	Y44	Z44	X45	Y45	Z45	X46	Y46	Z46	X47	Y47	Z47	X48	Y48	Z48	X49	Y49	Z49	
251	1.2550	446.474974	1343.723835	-41.851485	465.650568	1359.737078	-374.955720	442.873769	1434.759562	-206.211654	463.585667	1262.101153	-203.025372	482.482486	1084.014413	36.897462	681.224498	943.998541	-31.381355	489.782660	1100.106252	-464.325344	677.624560	942.480313	-415.377877	-40.427474	1131.358000	-211.233518	146.470028	1100.662098	-375.826091	116.286168	1101.294818	-40.187303	160.491422	1034.512047	-348.265283	141.046059	1052.088023	-69.535397	-4.996289	1171.362382	-182.318204	-6.648878	1166.636181	-246.478327	74.835354	1048.760502	-7.192808	108.503273	1031.056155	-410.396132	179.854986	989.774738	-7.387258	268.984384	975.197363	-10.455791	336.034733	920.650323	-12.596152	280.834924	1006.076214	-30.395023	412.414057	841.846502	-35.865110	413.848477	817.042482	-146.500338	377.140704	722.695734	-13.151685	369.399785	637.843669	-34.695896	323.612538	564.174473	-39.249656	391.899610	635.167361	-66.939282	291.597147	489.770730	-45.098437	325.292298	494.108728	-137.905252	224.785481	476.428024	-96.018714	483.795071	381.917559	-103.874296	387.378439	388.780444	-31.316745	155.332535	918.205887	-422.510632	225.529134	866.988194	-414.336597	252.572371	889.233923	-400.280751	260.671567	784.979572	-407.343122	286.315384	677.299799	-379.604660	286.432461	657.334114	-264.066583	47.648227	396.548945	-381.205745	-21.921254	419.659543	-335.122210	89.561054	255.889773	-404.160881	222.181181	594.905239	-405.121960	184.920182	517.592657	-389.357357	114.342067	465.366073	-395.610346	205.629964	503.784497	-358.705203	155.521149	201.088544	-345.275851	-154.664908	858.490345	-217.664536	-48.708906	83.956399	-419.306079	-50.288616	80.189221	-21.642733	
252	1.2600	446.536059	1343.678500	-41.747033	465.778832	1359.690022	-374.815767	442.990228	1434.723590	-206.092011	463.689302	1262.045375	-202.918358	482.445004	1083.950205	37.101630	681.209234	943.959258	-31.345120	489.754155	1100.098693	-464.410729	677.622633	942.496640	-415.418908	-40.380984	1131.345767	-211.170881	146.429261	1100.692626	-375.690696	116.366461	1101.261985	-40.123229	160.494312	1034.576043	-348.176476	141.131589	1052.073976	-69.498385	-4.969971	1171.362656	-182.198947	-6.612229	1166.641562	-246.391622	74.934590	1048.699814	-7.139041	108.535301	1031.133938	-410.359481	179.970668	989.706033	-7.403860	269.089526	975.148883	-10.508239	336.127894	920.584359	-12.707946	280.921290	1006.040106	-30.447411	412.500469	841.767880	-36.003034	413.872888	816.990218	-146.598904	377.190313	722.638049	-13.228894	369.421305	637.799625	-34.761493	323.622562	564.139863	-39.291539	391.913550	635.090113	-67.025277	291.556027	489.709235	-45.109573	325.250994	494.069584	-137.929803	224.749440	476.371126	-96.013574	483.784042	381.936179	-103.867046	387.377724	388.766046	-31.306401	155.341374	918.275430	-422.537504	225.546126	867.074545	-414.410996	252.600123	889.314442	-400.322651	260.709120	785.062178	-407.465382	286.338404	677.322795	-379.756462	286.545431	657.359121	-264.225154	47.688496	396.572379	-381.236204	-21.849535	419.692924	-335.111831	89.575873	255.911084	-404.192164	222.187524	594.941447	-405.248466	184.949310	517.637904	-389.457151	114.361438	465.413050	-395.705884	205.684633	503.830593	-358.810784	155.492420	201.073612	-345.276879	-154.679451	858.474155	-217.681532	-48.707454	83.950352	-419.311137	-50.281876	80.164976	-21.639375	
253	1.2650	446.584231	1343.610614	-41.650130	465.876476	1359.649595	-374.696883	443.104514	1434.701607	-205.992978	463.765187	1262.016560	-202.790362	482.420618	1083.895032	37.301739	681.203549	943.920826	-31.330258	489.709950	1100.072970	-464.503538	677.620213	942.468161	-415.426258	-40.336037	1131.335187	-211.087400	146.401802	1100.703263	-375.540154	116.438925	1101.242400	-40.038982	160.510888	1034.646234	-348.086435	141.231188	1052.076997	-69.429089	-4.925092	1171.350620	-182.125804	-6.557849	1166.626222	-246.317692	75.040765	1048.660821	-7.086040	108.548114	1031.206873	-410.304099	180.062554	989.652830	-7.436355	269.195442	975.076652	-10.562825	336.220182	920.520502	-12.794237	281.035526	1005.982133	-30.487801	412.572915	841.687588	-36.092902	414.081871	816.803521	-146.703419	377.253083	722.571270	-13.321952	369.429330	637.741872	-34.829708	323.630425	564.084039	-39.319211	391.908328	635.010636	-67.105935	291.511999	489.671952	-45.116756	325.195896	494.038669	-137.946891	224.703008	476.284637	-96.009888	483.782338	381.951668	-103.878357	387.362723	388.760604	-31.314341	155.372564	918.368978	-422.563731	225.566516	867.144995	-414.485802	252.626233	889.394361	-400.409464	260.720050	785.138262	-407.595158	286.336285	677.355509	-379.916045	286.664751	657.360784	-264.390253	47.726912	396.589046	-381.259723	-21.800428	419.742234	-335.133496	89.583664	255.903884	-404.155814	222.195011	594.978012	-405.386430	184.964175	517.669965	-389.594368	114.377970	465.434154	-395.786884	205.695830	503.859826	-358.934371	155.498941	201.063291	-345.297274	-154.705313	858.477025	-217.719898	-48.713723	83.955397	-419.315932	-50.283485	80.190993	-21.623599	
254	1.2700	446.661811	1343.570837	-41.530952	465.975302	1359.597754	-374.597175	443.222299	1434.705015	-205.879489	463.850562	1261.979602	-202.717214	482.405209	1083.858712	37.463856	681.200849	943.889540	-31.279397	489.666235	1100.047920	-464.606879	677.610010	942.492985	-415.455492	-40.275026	1131.342017	-211.008650	146.364800	1100.743852	-375.416599	116.505566	1101.197276	-39.980843	160.521261	1034.712213	-348.044284	141.294723	1052.040648	-69.388243	-4.898514	1171.324692	-182.017907	-6.545222	1166.604781	-246.191670	75.122011	1048.606089	-7.029757	108.564668	1031.274179	-410.222348	180.165913	989.587673	-7.463123	269.310770	974.999757	-10.615663	336.321120	920.452512	-12.897550	281.132101	1005.940524	-30.505488	412.632499	841.615034	-36.209867	414.085421	816.703659	-146.827282	377.279381	722.511320	-13.414583	369.435859	637.678027	-34.887017	323.592508	564.045781	-39.338768	391.899342	634.914629	-67.176094	291.451919	489.601068	-45.132370	325.129064	493.972386	-137.971137	224.641427	476.190412	-96.034771	483.757052	381.987879	-103.867041	387.349040	388.751787	-31.313848	155.388542	918.438426	-422.588528	225.588252	867.226602	-414.554150	252.656515	889.449591	-400.488297	260.719765	785.179905	-407.727549	286.326009	677.378962	-380.080240	286.727065	657.366651	-264.534203	47.742653	396.602688	-381.292119	-21.785010	419.754240	-335.143023	89.559402	255.878882	-404.158674	222.169992	594.988735	-405.514999	184.941663	517.689388	-389.694658	114.374665	465.436725	-395.856788	205.698111	503.882188	-359.028620	155.482510	201.059993	-345.297620	-155.462435	858.358086	-218.351531	-48.708695	83.949105	-419.300784	-50.268713	80.191416	-21.629382	
